<?xml version="1.0" encoding="UTF-8" standalone="no"?>
<!-- Created with Inkscape (http://www.inkscape.org/) -->

<svg
   width="512"
   height="512"
   viewBox="0 0 512 512"
   version="1.1"
   id="svg1"
   inkscape:version="1.4.2 (f4327f4, 2025-05-13)"
   sodipodi:docname="Constant face.svg"
   xmlns:inkscape="http://www.inkscape.org/namespaces/inkscape"
   xmlns:sodipodi="http://sodipodi.sourceforge.net/DTD/sodipodi-0.dtd"
   xmlns="http://www.w3.org/2000/svg"
   xmlns:svg="http://www.w3.org/2000/svg">
  <sodipodi:namedview
     id="namedview1"
     pagecolor="#ffffff"
     bordercolor="#000000"
     borderopacity="0.25"
     inkscape:showpageshadow="2"
     inkscape:pageopacity="0.0"
     inkscape:pagecheckerboard="0"
     inkscape:deskcolor="#d1d1d1"
     inkscape:document-units="px"
     inkscape:zoom="1.5097656"
     inkscape:cx="256"
     inkscape:cy="202.34929"
     inkscape:window-width="1920"
     inkscape:window-height="991"
     inkscape:window-x="2391"
     inkscape:window-y="-9"
     inkscape:window-maximized="1"
     inkscape:current-layer="layer1" />
  <defs
     id="defs1" />
  <g
     inkscape:label="Calque 1"
     inkscape:groupmode="layer"
     id="layer1">
    <path
       style="display:inline;fill:#1c71fd;fill-opacity:0.933333;stroke-width:3.19052"
       d="m 221.81288,510.13739 c -7.11907,-0.89618 -19.52818,-2.95257 -27.5758,-4.56977 -8.04763,-1.61718 -21.21648,-4.91607 -29.26412,-7.33084 -8.04763,-2.41478 -20.20349,-6.47669 -27.01303,-9.02648 -6.80954,-2.54981 -16.93942,-6.78301 -22.51086,-9.40715 -5.57144,-2.62413 -12.32145,-6.39044 -15.00003,-8.36958 -2.678585,-1.97911 -5.590919,-5.32346 -6.471873,-7.43186 -0.880945,-2.10841 -1.60172,-7.30497 -1.60172,-11.54791 0,-4.24297 0.797779,-10.0558 1.772839,-12.91747 0.975069,-2.86166 3.76105,-7.46172 6.191084,-10.22238 2.43002,-2.76065 8.59654,-7.70844 13.70337,-10.99505 5.10682,-3.28661 16.40954,-9.57598 25.11714,-13.97634 8.70759,-4.40033 20.61021,-9.90205 26.45025,-12.22605 5.84005,-2.32397 11.75788,-4.95858 13.15073,-5.85464 2.29935,-1.47925 2.53248,-2.5085 2.53248,-11.18151 v -9.55227 l -7.91853,-8.54015 c -4.35518,-4.69708 -10.38676,-12.19791 -13.4035,-16.66852 -3.01674,-4.47062 -7.25754,-11.63881 -9.424,-15.92929 -2.16645,-4.29049 -5.53526,-13.01998 -7.48623,-19.39884 -1.95097,-6.37886 -4.1501,-11.80625 -4.88695,-12.06088 -0.73686,-0.25461 -4.3787,-1.57569 -8.093,-2.93566 -5.04443,-1.84699 -8.48616,-4.20641 -13.60167,-9.3244 -4.36939,-4.37152 -8.12985,-9.54098 -10.38844,-14.28085 -1.947,-4.086 -4.36204,-10.92365 -5.36674,-15.19482 -1.249725,-5.31278 -1.661437,-10.78767 -1.303439,-17.33285 0.349608,-6.39167 1.343639,-11.47196 2.994839,-15.30606 1.35935,-3.1564 4.59472,-7.81753 7.1897,-10.35801 2.59499,-2.54047 6.58287,-5.39509 8.86198,-6.34357 2.27909,-0.94851 4.44507,-2.21199 4.81326,-2.80772 0.36819,-0.59576 -0.43222,-9.34045 -1.77871,-19.43269 -1.63354,-12.24382 -2.47989,-24.71622 -2.54356,-37.48371 -0.0746,-14.96808 0.33566,-20.72714 1.88448,-26.45026 1.08895,-4.02381 3.25611,-9.94582 4.8159,-13.16005 1.55979,-3.214216 5.04426,-8.300178 7.74325,-11.302102 2.699,-3.001924 6.68172,-6.413673 8.85049,-7.581625 2.85625,-1.53818 4.97646,-4.162537 7.69154,-9.520433 2.48825,-4.910267 6.77955,-10.441631 12.76527,-16.453998 6.2589,-6.286782 11.51166,-10.350094 17.17299,-13.284347 4.48582,-2.324961 11.07025,-5.238794 14.63206,-6.475183 3.56179,-1.236388 10.02146,-3.00253 14.3548,-3.92478 4.33334,-0.92222 16.53625,-2.916323 27.11758,-4.431309 10.58133,-1.514984 23.75018,-4.046753 29.26411,-5.626122 5.51394,-1.579369 14.58378,-5.119596 20.15522,-7.867141 5.57143,-2.747576 12.59089,-7.0334269 15.59878,-9.5241665 C 304.01271,4.0378459 306.86302,2 307.33888,2 c 0.47584,0 1.41468,0.6621273 2.08635,1.4714022 0.67163,0.809274 2.0261,4.481365 3.00992,8.1601888 1.15495,4.318649 1.66844,10.045018 1.44913,16.160566 -0.21664,6.037701 0.0986,9.618417 0.86909,9.87621 0.66481,0.222379 3.70377,-1.471976 6.75325,-3.765447 3.04949,-2.293438 8.46385,-6.667316 12.03197,-9.719714 5.52054,-4.722664 6.74905,-5.332722 8.24244,-4.093303 0.96526,0.801074 2.69216,3.293504 3.83759,5.538702 1.14542,2.245229 2.85627,7.090793 3.80191,10.767959 0.9456,3.677164 1.90926,10.921484 2.14147,16.09851 0.32122,7.162068 0.85439,9.654658 2.22973,10.424338 0.99413,0.556362 4.48605,3.297908 7.75984,6.092352 3.27379,2.794445 8.14532,7.726885 10.82564,10.960983 2.68032,3.234098 6.60283,9.44169 8.71668,13.794611 2.11384,4.352947 4.74758,11.190602 5.85271,15.194832 1.63565,5.92625 1.98061,11.25807 1.85464,28.66571 -0.0935,12.9089 -0.88415,26.51581 -1.99503,34.32906 -1.01215,7.11906 -2.15496,16.10476 -2.53955,19.96822 l -0.69923,7.02446 3.96533,1.65683 c 2.18094,0.91125 5.56816,3.0055 7.52719,4.65391 1.95901,1.64841 4.65659,5.086 5.9946,7.63908 1.9494,3.71973 2.52067,7.10184 2.87532,17.02297 0.35163,9.8353 -0.0459,14.43711 -1.93425,22.38124 -1.30728,5.50016 -3.85679,13.09757 -5.66562,16.88315 -1.80883,3.78558 -5.19345,9.10516 -7.52139,11.82131 -2.32795,2.71618 -6.94453,6.67328 -10.2591,8.79356 -3.31455,2.12032 -6.46966,4.96295 -7.01135,6.31698 -0.54165,1.35402 -2.09224,7.4866 -3.44572,13.62793 -1.70223,7.72383 -4.17009,14.51933 -8.00539,22.04358 -3.04945,5.98267 -8.75397,14.88653 -12.67668,19.78639 -3.92267,4.89984 -9.62418,11.18806 -12.67001,13.97376 -3.04582,2.78573 -7.41827,6.72653 -9.71659,8.75736 -3.90815,3.45332 -4.13296,3.99991 -3.47179,8.44156 0.38883,2.61204 1.2787,5.95347 1.97752,7.42538 1.0112,2.12996 4.46295,3.78689 16.91024,8.11737 8.60181,2.99264 22.35875,8.70315 30.57091,12.69009 8.21219,3.98689 17.90689,9.26962 21.54379,11.7394 3.63687,2.46978 8.54286,6.62712 10.90212,9.23855 2.35929,2.61147 5.50169,7.35127 6.98311,10.53291 1.80826,3.88359 2.69573,7.81932 2.7003,11.97528 0.003,4.18037 -0.71073,7.36722 -2.20287,9.81444 -1.2153,1.99321 -4.37898,5.20682 -7.03042,7.14143 -2.65145,1.9346 -8.113,5.18088 -12.13685,7.21395 -4.02382,2.03308 -12.12772,5.73258 -18.00867,8.22112 -5.88095,2.48857 -15.25111,6.12751 -20.82255,8.08662 -5.57143,1.95907 -16.71431,5.29258 -24.76194,7.40777 -8.04762,2.11518 -20.70997,4.92666 -28.13855,6.24769 -10.51227,1.86942 -19.24554,2.48657 -39.39402,2.78373 -17.99578,0.26545 -29.83333,-0.11486 -38.83122,-1.24759 z m 50.95973,-64.19115 c 3.75414,-0.97279 9.67215,-3.20558 13.15112,-4.96176 3.47894,-1.75619 8.87681,-5.48699 11.99522,-8.29071 3.11841,-2.80374 7.4034,-8.29496 9.52222,-12.20277 3.68204,-6.79098 3.84853,-7.60268 3.76573,-18.36052 -0.0488,-6.34189 -0.66774,-12.33753 -1.41777,-13.73415 l -1.33114,-2.47874 -10.40041,4.9929 c -5.72025,2.74607 -13.69267,5.83366 -17.71649,6.86126 -4.8395,1.23595 -11.69753,1.84712 -20.25976,1.80552 -10.58751,-0.0514 -14.78775,-0.6068 -23.07362,-3.05071 -5.57144,-1.64328 -13.9286,-4.63834 -18.57146,-6.6557 -4.64287,-2.01733 -11.93249,-5.79461 -16.19916,-8.39392 -4.26667,-2.59932 -7.98539,-4.49822 -8.26382,-4.21978 -0.27844,0.27854 -0.58623,7.25507 -0.68399,15.50364 -0.16808,14.18069 -0.01,15.35537 2.90184,21.57107 1.89523,4.04557 5.67961,9.11783 9.8402,13.18895 4.57898,4.48053 9.75975,8.06671 16.05463,11.11311 5.11172,2.47379 13.34599,5.49237 18.29838,6.70793 4.9524,1.21556 12.72994,2.24679 17.28345,2.29162 4.55351,0.0447 11.35068,-0.71445 15.10483,-1.68724 z m 3.6291,-60.69818 c 4.33335,-0.90668 11.93077,-3.66227 16.88315,-6.12356 4.95238,-2.46128 13.33523,-7.74666 18.62859,-11.74527 5.29333,-3.99861 13.0707,-10.92362 17.28301,-15.38894 4.21234,-4.46528 10.08216,-11.83091 13.04403,-16.36804 2.96189,-4.53717 6.93673,-11.97625 8.83298,-16.53123 1.89628,-4.55504 4.47231,-12.04631 5.72449,-16.64725 1.25221,-4.60099 2.98055,-12.80948 3.84073,-18.24111 0.86913,-5.4881 1.12652,-10.14609 0.57934,-10.48429 -0.54156,-0.33468 -4.3987,0.81719 -8.57141,2.55969 -7.19803,3.00591 -8.45193,3.16592 -24.46995,3.12252 -14.7555,-0.0398 -17.73418,-0.36799 -23.63638,-2.60279 -3.7143,-1.40634 -7.83086,-2.82583 -9.14794,-3.15436 -2.22503,-0.55502 -2.42754,-0.081 -2.85861,6.68843 -0.36812,5.78132 -1.10582,8.1274 -3.5726,11.36149 -1.70977,2.24162 -4.69067,4.89377 -6.62419,5.89362 -2.67958,1.38567 -5.71496,1.70249 -12.76556,1.33246 -6.14171,-0.32238 -10.23596,-1.13149 -12.18393,-2.40786 -1.73959,-1.13981 -2.93384,-2.96555 -2.93384,-4.48512 0,-1.40954 0.6078,-3.17062 1.35065,-3.91346 0.74285,-0.74285 2.58345,-1.35064 4.0902,-1.35064 1.50675,0 4.71523,0.59191 7.12995,1.31538 3.67675,1.10159 5.0345,1.00824 8.353,-0.57423 2.6426,-1.26018 4.54425,-3.28173 5.70873,-6.0687 1.66969,-3.99616 1.56966,-4.89474 -2.28505,-20.52969 -2.21717,-8.99285 -4.59097,-20.14932 -5.27512,-24.79219 -0.68417,-4.64287 -1.699,-9.58118 -2.25521,-10.97407 -0.87146,-2.18228 -1.83946,-2.53247 -7.0008,-2.53247 -3.29423,0 -6.5973,0.6078 -7.34016,1.35068 -0.74285,0.74285 -1.35065,2.71216 -1.35065,4.37624 0,1.66411 -1.26964,7.40688 -2.82142,12.76177 -1.55179,5.35489 -4.54588,13.13557 -6.65354,17.29046 -2.10767,4.15484 -5.77634,9.42863 -8.15262,11.71952 -2.37627,2.29086 -6.69642,5.21365 -9.6003,6.49509 -2.90388,1.28144 -9.48831,2.8715 -14.63205,3.53347 -5.14375,0.662 -13.57451,0.8748 -18.73502,0.47296 -5.16052,-0.40188 -12.50469,-1.69551 -16.32038,-2.87479 -3.81568,-1.17927 -9.35029,-3.67496 -12.29911,-5.54594 -3.0438,-1.93128 -6.83164,-5.71954 -8.76237,-8.76335 -1.87047,-2.94881 -4.14376,-7.86226 -5.05175,-10.91875 -0.90797,-3.05648 -2.4463,-10.14178 -3.41849,-15.74506 -0.97219,-5.60331 -1.95831,-10.37855 -2.19139,-10.61162 -0.23307,-0.23291 -1.6853,1.02754 -3.22716,2.80133 -2.31012,2.65767 -3.16194,3.00655 -4.84127,1.98298 -1.12085,-0.68316 -3.86952,-4.48188 -6.10816,-8.44157 -3.513,-6.21375 -4.55888,-7.24815 -7.63909,-7.55524 -2.7816,-0.27725 -4.26889,0.39362 -6.74249,3.04162 -1.74551,1.86856 -3.86372,5.82739 -4.70714,8.79737 -0.84341,2.96999 -1.50436,8.20515 -1.46879,11.6337 0.0355,3.42856 1.1544,9.82143 2.48628,14.20634 1.33188,4.38492 4.07286,10.42989 6.09106,13.43329 2.0182,3.00339 5.39047,6.61381 7.49392,8.02315 3.16264,2.11901 5.34004,2.56243 12.58256,2.56243 h 8.75809 l 1.2543,6.47187 c 0.68987,3.55953 2.54834,10.77707 4.12992,16.03897 1.58159,5.26192 4.51346,13.12642 6.51527,17.47669 2.00181,4.35027 6.12992,11.69441 9.17359,16.32037 3.04367,4.62593 9.01713,12.08219 13.27437,16.56943 4.25724,4.48723 11.09556,10.63922 15.19625,13.67111 4.1007,3.03185 10.57326,7.33381 14.38346,9.55989 3.81022,2.22606 10.85033,5.61812 15.64471,7.53788 4.79437,1.91977 11.80682,4.16267 15.5832,4.98425 3.77639,0.82156 10.66487,1.52524 15.30773,1.56371 4.64286,0.0386 11.98703,-0.67189 16.32038,-1.57857 z m -26.45026,-48.38458 c -4.02381,-0.90508 -9.59525,-2.49731 -12.38097,-3.53834 -2.78573,-1.041 -7.6493,-3.53225 -10.80794,-5.53609 -3.15864,-2.0038 -6.83072,-5.40333 -8.16018,-7.55442 -1.32946,-2.15111 -2.4172,-4.70152 -2.4172,-5.66754 0,-0.96607 0.79592,-2.55239 1.76871,-3.52517 0.97279,-0.97279 2.46147,-1.76873 3.30818,-1.76873 0.8467,0 3.89556,2.03919 6.77522,4.53152 2.87966,2.49233 7.19972,5.53348 9.60013,6.75806 2.40041,1.2246 7.54592,2.97664 11.43446,3.89341 3.88854,0.91679 10.61553,1.65782 14.94887,1.64678 4.82247,-0.0127 10.0619,-0.82481 13.50652,-2.09451 3.09525,-1.14093 7.28669,-2.75979 9.31436,-3.59745 2.70757,-1.11856 4.20213,-1.20031 5.62772,-0.30788 1.06758,0.66838 2.09699,2.51203 2.28757,4.09701 0.26066,2.16729 -0.62263,3.65506 -3.56244,6.00076 -2.1499,1.71547 -6.35723,4.08073 -9.34958,5.25615 -3.25282,1.27771 -9.28843,2.32103 -15.00904,2.59452 -5.96142,0.28492 -12.32626,-0.16303 -16.88439,-1.18817 z M 380.42627,270.5701 c 1.86814,-2.71526 4.42617,-7.54879 5.68448,-10.74118 1.25834,-3.1924 3.0464,-10.15407 3.97347,-15.4704 0.9271,-5.31629 1.68561,-12.14843 1.68561,-15.18245 0,-3.03405 -0.70804,-7.21108 -1.57346,-9.28229 -0.8654,-2.07119 -2.13619,-4.1136 -2.82393,-4.53867 -0.68775,-0.42504 -2.30515,-0.43806 -3.59421,-0.0287 -1.28907,0.40914 -3.11761,2.59443 -4.06341,4.85621 -1.06184,2.53923 -2.07881,10.3553 -2.65856,20.4327 -0.51639,8.9762 -1.2757,20.49894 -1.68737,25.60609 -0.50879,6.31262 -0.36276,9.28573 0.45615,9.28573 0.66254,0 2.73309,-2.22158 4.60123,-4.9368 z m -160.33214,-4.54504 c 2.42629,-1.01379 5.98904,-3.04653 7.91723,-4.51723 1.9282,-1.4707 5.10839,-5.68075 7.06709,-9.35564 1.95871,-3.67494 4.32621,-9.92675 5.2611,-13.89295 0.93491,-3.96619 1.70731,-10.14877 1.71646,-13.73903 0.009,-3.66558 -0.73199,-7.97545 -1.69073,-9.82946 -0.93905,-1.81591 -3.3449,-4.19661 -5.34633,-5.29042 -3.23951,-1.77044 -7.18115,-1.98878 -35.90764,-1.98878 h -32.26868 l -2.8873,2.71248 c -1.58801,1.49189 -3.21055,4.43556 -3.60563,6.54152 -0.39509,2.10593 -0.12839,8.42909 0.59265,14.05141 0.72102,5.62233 2.28303,12.98811 3.47112,16.36843 1.18809,3.38032 3.43527,7.81781 4.99374,9.86105 1.55847,2.04327 4.59422,4.80316 6.7461,6.1331 2.15189,1.32993 7.10104,3.14431 10.99814,4.03195 4.4831,1.02112 11.02408,1.45647 17.80844,1.18534 6.46171,-0.25843 12.47586,-1.16103 15.13424,-2.27177 z m -13.67757,-15.97039 c -2.01659,-0.99448 -4.40564,-3.50841 -5.47431,-5.76051 -1.31733,-2.77606 -1.72947,-5.73106 -1.35005,-9.67976 0.44001,-4.57922 1.23393,-6.29837 4.08514,-8.84592 2.06843,-1.84814 4.83064,-3.1621 6.64742,-3.1621 1.70964,0 4.23701,0.79052 5.61639,1.75667 1.37938,0.96615 3.2648,3.22022 4.18984,5.00905 0.92504,1.78882 1.68189,5.35199 1.68189,7.91818 0,2.5662 -0.86412,6.1286 -1.92025,7.9165 -1.05614,1.7879 -3.53853,4.01865 -5.51643,4.95723 -1.9779,0.93859 -3.77288,1.69497 -3.98885,1.68086 -0.21597,-0.0127 -2.00283,-0.81968 -3.97079,-1.7902 z m 137.54573,14.69909 c 3.07984,-1.0418 6.95794,-2.85707 8.61803,-4.03396 1.66005,-1.17688 4.54259,-5.19011 6.40557,-8.91829 1.863,-3.72815 4.23524,-10.59002 5.27168,-15.24855 1.1036,-4.96058 1.68555,-11.21945 1.40443,-15.10556 -0.32198,-4.4517 -1.19816,-7.44131 -2.66226,-9.08407 -1.20027,-1.34672 -3.81215,-3.13844 -5.80419,-3.98157 -2.72033,-1.1514 -10.3923,-1.53298 -30.82183,-1.53298 -17.50336,0 -28.76591,0.46917 -31.59254,1.31606 -2.41593,0.72383 -5.64029,2.47236 -7.16523,3.88566 -2.38641,2.21163 -2.76994,3.55708 -2.75313,9.65801 0.01,3.89859 0.74158,10.49539 1.62404,14.65956 0.88246,4.16413 2.56444,9.74124 3.73768,12.39358 1.17326,2.65235 3.69897,6.38821 5.61269,8.30195 1.91374,1.91373 5.41456,4.41561 7.7796,5.55976 2.36503,1.14415 7.08578,2.72942 10.49056,3.52284 3.53524,0.82386 10.06461,1.24082 15.22282,0.97215 4.96779,-0.25875 11.55221,-1.32282 14.63208,-2.36459 z M 306.3452,247.89195 c -3.07001,-3.49655 -3.49323,-4.78982 -3.49323,-10.67489 0,-5.72238 0.45018,-7.19573 3.09524,-10.12982 1.90414,-2.11222 4.61131,-3.67413 7.03497,-4.05881 2.95981,-0.46981 4.68757,-0.037 6.94618,1.7395 1.65355,1.30068 3.86646,4.61677 4.91757,7.36913 1.3024,3.41028 1.66274,6.32851 1.13127,9.1616 -0.42897,2.28651 -2.22322,5.60056 -3.98719,7.36457 -2.44974,2.44974 -4.26359,3.20729 -7.67945,3.20729 -3.71021,0 -5.06729,-0.67785 -7.96536,-3.97857 z m -24.01026,-49.4191 c 2.30815,-1.51154 6.55977,-3.33364 9.44804,-4.04912 3.59482,-0.8905 16.33834,-1.17749 40.39792,-0.90977 l 35.14658,0.3911 -0.68631,-13.50651 c -0.43729,-8.60626 -1.7125,-17.59007 -3.51483,-24.76194 -1.55572,-6.19049 -5.08409,-15.81388 -7.84082,-21.38532 -2.75676,-5.57143 -7.61866,-13.04225 -10.80426,-16.60175 -3.421,-3.82259 -6.72069,-6.4719 -8.06068,-6.4719 -1.24778,0 -3.73303,1.0427 -5.52278,2.31711 -1.78972,1.27443 -7.43936,4.27741 -12.55472,6.67332 -5.11535,2.39592 -13.09934,5.41137 -17.74222,6.70101 -4.64283,1.28964 -14.16556,3.09834 -21.16156,4.01934 -7.20777,0.9489 -21.49385,1.67454 -32.96649,1.67454 -11.13556,0 -25.16484,-0.53371 -31.17617,-1.18604 -6.01132,-0.6523 -16.50112,-2.47931 -23.31065,-4.06002 -6.80953,-1.58068 -13.77384,-3.13044 -15.47621,-3.44388 -3.06792,-0.56485 -3.09525,-0.51571 -3.09525,5.56828 0,3.37602 -1.00596,10.07147 -2.23545,14.87878 -1.22951,4.8073 -5.8469,17.84631 -10.26086,28.97552 -4.84881,12.22564 -7.61805,20.64231 -6.9963,21.26405 0.62176,0.62177 4.34905,0.59825 9.4167,-0.0593 4.61318,-0.59867 21.57666,-1.10414 37.69662,-1.12326 22.73815,-0.0255 30.78803,0.35048 35.90602,1.68357 3.62836,0.94507 7.91335,2.70174 9.52221,3.90373 2.53181,1.89153 4.85841,2.19025 17.30001,2.22111 13.37706,0.0332 14.66608,-0.15506 18.57146,-2.71258 z M 182.97542,182.0768 c -0.38602,-0.62461 -0.35769,-2.27073 0.063,-3.65802 0.42064,-1.38734 1.84619,-3.71131 3.1679,-5.16443 1.32171,-1.45309 4.40464,-3.66811 6.85097,-4.92226 2.93211,-1.50321 7.53487,-2.46924 13.50651,-2.83481 5.07501,-0.31075 11.09601,-8.4e-4 13.69154,0.70431 2.54808,0.69234 5.96692,2.59287 7.59742,4.22335 1.63049,1.63051 2.96453,4.1776 2.96453,5.66022 0,1.48264 -0.84386,3.01954 -1.87523,3.41529 -1.03137,0.39579 -5.96969,-0.10816 -10.97404,-1.11961 -6.57075,-1.32818 -10.5061,-1.56122 -14.16377,-0.8387 -2.78572,0.55028 -7.51278,2.05119 -10.50458,3.33537 -2.9918,1.28418 -6.38075,2.33488 -7.53099,2.33488 -1.15024,0 -2.40718,-0.51102 -2.7932,-1.13559 z m 147.28355,-1.70231 c -1.95002,-0.86836 -6.68184,-2.08394 -10.51521,-2.70127 -5.44954,-0.87766 -9.00439,-0.72665 -16.29794,0.69227 -5.13048,0.99812 -10.14868,1.49989 -11.1515,1.11505 -1.12589,-0.43202 -1.82334,-2.00479 -1.82334,-4.11161 0,-1.88043 0.98383,-4.39576 2.19173,-5.60367 1.20544,-1.20547 4.37103,-2.78308 7.03464,-3.50586 2.88023,-0.78155 8.94831,-1.09042 14.97281,-0.76215 5.77714,0.3149 12.18714,1.39087 14.91765,2.5042 2.63326,1.07371 6.07815,3.4858 7.65535,5.36017 1.57994,1.87767 2.71522,4.47542 2.52826,5.7852 -0.23131,1.62081 -1.23473,2.44556 -3.15318,2.59191 -1.54763,0.11804 -4.4093,-0.49588 -6.35927,-1.36424 z M 52.418673,459.64704 c -2.476194,-0.78311 -6.08241,-2.24765 -8.013817,-3.25454 -1.931407,-1.0069 -5.851728,-4.43345 -8.711826,-7.61455 -3.133307,-3.485 -5.954562,-8.08905 -7.09818,-11.58361 -1.631697,-4.98598 -1.988588,-13.38489 -2.543603,-59.85978 l -0.645602,-54.06005 -2.875315,-5.58332 c -1.58142,-3.07085 -4.998622,-7.20286 -7.593777,-9.18226 -2.889579,-2.20394 -6.6987386,-3.89584 -9.8275077,-4.36504 L 0,303.37775 l 0.3218528,-10.18301 0.32184959,-10.183 5.11904111,-1.78271 c 2.8154731,-0.9805 6.9696225,-2.94854 9.2314465,-4.37346 2.727677,-1.71834 5.172909,-4.75029 7.261928,-9.00433 l 3.149527,-6.4136 0.650671,-54.02609 c 0.570375,-47.35911 0.895236,-54.77868 2.632529,-60.12525 1.462641,-4.50128 3.653359,-7.77069 8.361972,-12.47931 4.467267,-4.46727 8.297646,-7.09753 12.775879,-8.77306 3.999448,-1.49639 9.689432,-2.51381 15.186533,-2.71552 l 8.790759,-0.32256 0.323104,9.70437 0.323106,9.7044 -4.825277,1.24325 c -2.653902,0.68379 -6.450951,2.24826 -8.437889,3.47661 -1.986937,1.22831 -4.772656,4.40578 -6.190486,7.06102 -2.553398,4.78188 -2.583214,5.31951 -3.140644,56.63021 l -0.562772,51.80251 -3.724761,7.56219 c -2.32675,4.72391 -6.445628,10.32359 -10.974041,14.91936 -3.987107,4.04644 -7.24928,7.63264 -7.24928,7.96936 0,0.33676 2.659093,3.05327 5.909097,6.03675 3.250006,2.98345 7.533761,8.1377 9.519458,11.45392 1.985693,3.31618 4.391543,9.04818 5.346327,12.73777 1.422612,5.49742 1.735972,14.78255 1.735972,51.43819 0,27.96971 0.458636,46.86838 1.224016,50.43722 0.801345,3.73655 2.465585,7.02383 4.819515,9.51973 2.413316,2.55886 5.7116,4.42749 10.031413,5.68331 l 6.435914,1.87098 v 9.48724 9.48722 l -8.722957,-0.0753 c -4.797626,-0.0414 -10.748936,-0.71603 -13.22513,-1.49913 z M 435.47916,452.7339 c -0.24536,-5.74787 0.0865,-9.26784 0.95549,-10.13368 0.73226,-0.72964 3.26473,-1.64382 5.62772,-2.0315 2.36295,-0.38764 5.97184,-1.73452 8.01977,-2.99302 2.13726,-1.31344 4.64399,-4.31607 5.88436,-7.04852 2.01746,-4.44426 2.16257,-7.83894 2.18566,-51.13355 0.016,-29.51259 0.47842,-48.54184 1.2726,-52.33773 0.68635,-3.28049 2.77566,-8.86326 4.64291,-12.40621 1.86728,-3.54294 5.9908,-8.86555 9.16338,-11.82805 3.17262,-2.96248 7.03461,-6.26827 8.58223,-7.34619 l 2.81384,-1.95987 -2.81384,-1.89653 c -1.54762,-1.04311 -6.15466,-5.23698 -10.23785,-9.31973 -5.40144,-5.40086 -8.15272,-9.25373 -10.09888,-14.14243 -2.64286,-6.63892 -2.68194,-7.33158 -3.26865,-57.93146 l -0.59378,-51.2122 -2.81388,-5.00742 c -1.54762,-2.75405 -4.53851,-6.01215 -6.64642,-7.24017 -2.1079,-1.22806 -5.65336,-2.52679 -7.87881,-2.88608 l -4.04622,-0.65326 -0.97878,-8.71214 c -0.73063,-6.50304 -0.62432,-9.13924 0.4192,-10.39662 0.77428,-0.93294 3.21958,-1.68066 5.48095,-1.67595 2.24562,0.003 7.30524,0.53136 11.24358,1.17039 3.9383,0.63906 9.50974,2.3642 12.38094,3.83365 2.87121,1.46946 7.09476,4.61486 9.38564,6.98978 2.29089,2.37493 5.32986,6.85052 6.75324,9.94577 2.55969,5.5661 2.59417,6.22527 3.15079,60.21654 0.54197,52.5705 0.65077,54.779 2.94229,59.7324 1.30872,2.82897 4.27392,6.98344 6.58931,9.23211 2.32623,2.2592 7.30481,5.27035 11.12702,6.72988 l 6.91719,2.64134 v 9.91822 9.91823 l -7.15023,2.58904 c -3.93262,1.42395 -8.66292,4.02681 -10.51176,5.78412 -1.84884,1.7573 -4.13924,4.68498 -5.08976,6.50598 -0.95055,1.82098 -2.26252,4.85994 -2.91553,6.75322 -0.72262,2.09508 -1.47076,24.14703 -1.91153,56.3429 -0.54019,39.46022 -1.10207,53.95117 -2.2115,57.03575 -0.81802,2.27436 -3.33257,6.57958 -5.58784,9.56711 -2.87657,3.81047 -6.28557,6.54656 -11.42045,9.16606 -6.29514,3.21145 -8.83645,3.8247 -18.1532,4.38055 l -10.83333,0.64631 z"
       id="path4952" />
  </g>
</svg>
